<svg width="28" height="32" viewBox="0 0 28 32" fill="none" xmlns="http://www.w3.org/2000/svg">
	<path d="M9.57853 32C4.81597 31.9726 0.876465 22.2506 0.876465 17.2994C0.876465 9.21162 6.94365 7.44099 9.2819 7.44099C10.3357 7.44099 11.4608 7.8548 12.4533 8.22099C13.1473 8.47643 13.865 8.74012 14.2642 8.74012C14.5032 8.74012 15.0662 8.51581 15.5633 8.31899C16.6235 7.89693 17.9428 7.37237 19.479 7.37237C19.4818 7.37237 19.4855 7.37237 19.4882 7.37237C20.6353 7.37237 24.1134 7.62412 26.2045 10.7644L26.6943 11.5004L25.9893 12.0324C24.9823 12.7922 23.1448 14.1784 23.1448 16.9241C23.1448 20.176 25.2258 21.4266 26.2255 22.0281C26.6668 22.2936 27.1237 22.5674 27.1237 23.1661C27.1237 23.5571 24.0035 31.9515 19.4726 31.9515C18.3639 31.9515 17.5802 31.6182 16.889 31.3244C16.1895 31.0268 15.5862 30.7705 14.5892 30.7705C14.0838 30.7705 13.4447 31.0094 12.7682 31.2631C11.8436 31.6081 10.7971 32 9.60965 32H9.57853Z" fill="black"/>
	<path d="M19.9591 0C20.0771 4.25475 17.0342 7.2065 13.995 7.02138C13.4942 3.62594 17.0339 0 19.9591 0Z" fill="black"/>
</svg>
