<svg width="300" height="122" viewBox="0 0 300 122" fill="none" xmlns="http://www.w3.org/2000/svg">
	<path d="M26.4419 105.981C11.4815 105.981 0 95.9294 0 79.9952C0 64.0611 11.4815 54.03 26.4419 54.03C38.2784 54.03 46.5549 58.6753 49.5875 65.9273C51.7276 71.0392 50.0338 74.9137 44.0699 75.715L42.7311 75.8976C38.0147 76.5163 36.7672 75.0963 33.6534 72.6012C31.9596 71.2624 30.002 70.2887 27.5982 70.2887C23.3281 70.2887 20.6505 74.0313 20.6505 79.9952C20.6505 85.9591 23.318 89.7018 27.5982 89.7018C30.002 89.7018 31.9596 88.7179 33.6534 87.3892C36.7672 84.8941 38.0147 83.4742 42.7311 84.0929L44.0699 84.2653C50.0338 85.0666 51.6566 88.9208 49.5875 94.053C46.6461 101.356 38.2784 105.971 26.4419 105.971V105.981Z" fill="#DA2859"/>
	<path d="M58.4826 96.5582V46.8794C58.4826 41.0879 61.5964 37.9741 67.3879 37.9741H70.238C76.0295 37.9741 79.1433 41.0879 79.1433 46.8794V60.501C80.9284 57.4785 85.5535 53.4721 93.0286 53.4721C104.155 53.4721 111.194 58.371 111.194 76.6177V96.5582C111.194 102.35 108.08 105.463 102.289 105.463H99.4388C93.6473 105.463 90.5335 102.35 90.5335 96.5582V78.7578C90.5335 72.2563 88.6672 70.5727 84.8333 70.5727C80.9994 70.5727 79.1331 72.2665 79.1331 78.7578V96.5582C79.1331 102.35 76.0193 105.463 70.2279 105.463H67.3778C61.5863 105.463 58.4725 102.35 58.4725 96.5582H58.4826Z" fill="#DA2859"/>
	<path d="M130.242 54.5371H133.183C138.093 54.5371 142.089 58.5232 142.089 63.4424V96.5582C142.089 101.467 138.103 105.463 133.183 105.463H130.242C125.333 105.463 121.337 101.477 121.337 96.5582V63.4322C121.337 58.5232 125.323 54.527 130.242 54.527V54.5371Z" fill="#DA2859"/>
	<path d="M161.664 121.925C155.873 121.925 152.759 118.811 152.759 113.02V63.4322C152.759 57.6408 155.873 54.527 161.664 54.527H164.514C170.032 54.527 173.419 56.9308 173.419 60.8458V60.9371C175.712 57.3466 181.605 54.0198 186.95 54.0198C199.679 54.0198 207.073 63.7872 207.073 79.9039C207.073 96.0206 199.77 105.981 186.95 105.981C181.605 105.981 175.468 103.141 173.419 98.5157V113.03C173.419 118.821 170.306 121.935 164.514 121.935H161.664V121.925ZM186.503 79.9952C186.503 74.1226 183.745 70.1974 179.556 70.1974C175.367 70.1974 172.699 74.0212 172.699 79.9952C172.699 85.9692 175.367 89.7018 179.556 89.7018C183.745 89.7018 186.503 85.7867 186.503 79.9952Z" fill="#DA2859"/>
	<path d="M224.782 54.5371H227.723C232.632 54.5371 236.629 58.5232 236.629 63.4424V96.5582C236.629 101.467 232.642 105.463 227.723 105.463H224.782C219.873 105.463 215.877 101.477 215.877 96.5582V63.4322C215.877 58.5232 219.863 54.527 224.782 54.527V54.5371Z" fill="#1BBDEB"/>
	<path d="M281.845 54.03C294.756 54.03 300.01 60.5923 300.01 76.6177V96.5582C300.01 102.34 296.896 105.463 291.105 105.463H288.255C282.463 105.463 279.35 102.35 279.35 96.5582V78.7477C279.35 72.9562 277.564 70.5625 273.649 70.5625C269.379 70.5625 267.949 72.9663 267.949 78.7477V96.5582C267.949 102.34 264.835 105.463 259.044 105.463H256.194C250.402 105.463 247.289 102.35 247.289 96.5582V63.4322C247.289 57.6408 250.402 54.527 256.194 54.527H259.044C264.054 54.527 267.057 56.8598 267.777 60.8864C270.079 56.7989 275.729 54.0198 281.834 54.0198L281.845 54.03Z" fill="#1BBDEB"/>
	<path d="M120.12 39.384C120.12 32.3146 124.806 28.7342 131.439 28.7342C137.454 28.7342 142.758 32.3146 142.758 39.384C142.758 46.4534 137.454 50.0338 131.439 50.0338C124.806 50.0338 120.12 46.5447 120.12 39.384Z" fill="#DB2559"/>
	<path d="M213.99 39.384C213.99 32.3146 218.676 28.7342 225.309 28.7342C231.324 28.7342 236.629 32.3146 236.629 39.384C236.629 46.4534 231.324 50.0338 225.309 50.0338C218.676 50.0338 213.99 46.5447 213.99 39.384Z" fill="#1BBDEB"/>
	<path d="M138.103 15.9139C138.103 8.84441 142.789 5.26405 149.422 5.26405C155.436 5.26405 160.741 8.84441 160.741 15.9139C160.741 22.9833 155.436 26.5637 149.422 26.5637C142.789 26.5637 138.103 23.0746 138.103 15.9139Z" fill="#1BBDEB"/>
	<path d="M165.904 10.6498C165.904 3.58036 170.59 0 177.223 0C183.238 0 188.542 3.58036 188.542 10.6498C188.542 17.7192 183.238 21.2996 177.223 21.2996C170.59 21.2996 165.904 17.8105 165.904 10.6498Z" fill="#1BBDEB"/>
	<path d="M194.557 15.9139C194.557 8.84441 199.243 5.26405 205.876 5.26405C211.891 5.26405 217.195 8.84441 217.195 15.9139C217.195 22.9833 211.891 26.5637 205.876 26.5637C199.243 26.5637 194.557 23.0746 194.557 15.9139Z" fill="#1BBDEB"/>
</svg>
