<?xml version="1.0" encoding="UTF-8"?>
<svg version="1.1" xmlns="http://www.w3.org/2000/svg" width="500" height="200">
<path d="M0 0 C8.85141734 5.43400056 13.45426395 13.38045058 15.9921875 23.29296875 C18.72304078 37.56873971 18.7020548 54.81254033 10.6796875 67.453125 C5.68636378 74.16077784 0.55784396 78.49992016 -7.75390625 80.37890625 C-17.10812 81.44738325 -24.93417423 80.93091599 -32.75390625 75.37890625 C-33.76487722 74.38999892 -34.76666823 73.3915074 -35.75390625 72.37890625 C-35.76325195 73.10480957 -35.77259766 73.83071289 -35.78222656 74.57861328 C-35.83611906 77.88771839 -35.91973064 81.19543863 -36.00390625 84.50390625 C-36.01808594 85.64601563 -36.03226562 86.788125 -36.046875 87.96484375 C-36.35713421 98.63776044 -36.35713421 98.63776044 -40.75390625 103.37890625 C-47.06275252 107.24146519 -53.96559693 107.39317867 -61.1328125 105.875 C-64.47628785 104.7974527 -66.49728088 103.70175752 -68.69140625 100.94140625 C-70.73554801 96.01141729 -70.90733399 91.53663572 -70.91503906 86.2331543 C-70.92000397 85.41476074 -70.92496887 84.59636719 -70.93008423 83.75317383 C-70.94467454 81.04898229 -70.95150268 78.34484942 -70.95703125 75.640625 C-70.96278534 73.75739033 -70.96854304 71.87415567 -70.9743042 69.99092102 C-70.98480532 66.04252856 -70.99065378 62.09415641 -70.99414062 58.14575195 C-70.99962307 53.09519936 -71.02364956 48.04491667 -71.05211258 42.99444866 C-71.07076896 39.10387903 -71.07594616 35.21337402 -71.0774765 31.32276344 C-71.08049684 29.46129697 -71.08850443 27.59983147 -71.10166168 25.73840904 C-71.11878481 23.12967981 -71.11682674 20.52160498 -71.11035156 17.9128418 C-71.11956635 17.14948013 -71.12878113 16.38611847 -71.13827515 15.59962463 C-71.09062769 9.44776041 -69.80215845 4.72848419 -65.65625 -0.02734375 C-61.51794287 -2.29979235 -57.96347454 -2.20695182 -53.31640625 -2.12109375 C-52.06633789 -2.14429687 -52.06633789 -2.14429687 -50.79101562 -2.16796875 C-45.31010903 -2.13330689 -42.06483422 -1.29904157 -37.75390625 2.37890625 C-37.09390625 3.36890625 -36.43390625 4.35890625 -35.75390625 5.37890625 C-34.99207031 4.76402344 -34.99207031 4.76402344 -34.21484375 4.13671875 C-33.52648437 3.59789063 -32.838125 3.0590625 -32.12890625 2.50390625 C-31.45601563 1.97023438 -30.783125 1.4365625 -30.08984375 0.88671875 C-21.43828048 -4.69773513 -9.13129133 -4.30325224 0 0 Z M-33.75390625 26.37890625 C-37.65034003 31.75329767 -38.52815448 36.89196163 -37.75390625 43.37890625 C-36.21436659 47.86033853 -34.73402727 50.72549224 -30.75390625 53.37890625 C-27.33852481 53.96260068 -27.33852481 53.96260068 -23.75390625 53.37890625 C-20.10723065 50.54260301 -17.8768055 47.87050323 -16.75390625 43.37890625 C-16.10989956 37.28384295 -16.75249451 32.73857007 -19.75390625 27.37890625 C-24.62035267 22.66944197 -28.10574478 22.7736968 -33.75390625 26.37890625 Z " fill="#EE4C94" transform="translate(324.75390625,91.62109375)"/>
<path d="M0 0 C3.40442854 2.41893607 5.0382819 3.67734571 6.375 7.6875 C6.52389747 9.53216442 6.6229101 11.38107275 6.69140625 13.23046875 C6.73330078 14.30361328 6.77519531 15.37675781 6.81835938 16.48242188 C6.85767578 17.60197266 6.89699219 18.72152344 6.9375 19.875 C6.98068359 21.00615234 7.02386719 22.13730469 7.06835938 23.30273438 C7.17449099 26.09753354 7.27654385 28.89242162 7.375 31.6875 C7.88289063 31.27757812 8.39078125 30.86765625 8.9140625 30.4453125 C17.9476246 23.37409722 26.25679437 22.79229656 37.375 23.6875 C44.80723465 25.56074715 49.3153163 29.6273985 53.5625 35.9375 C57.61231584 43.53088885 57.69271687 51.87367687 57.7109375 60.29296875 C57.7209227 61.91722527 57.7209227 61.91722527 57.73110962 63.57429504 C57.74118086 65.84923618 57.74592836 68.12420652 57.74560547 70.39916992 C57.75000041 73.87532764 57.78643951 77.35023639 57.82421875 80.82617188 C57.83008373 83.04426652 57.83405526 85.26236715 57.8359375 87.48046875 C57.85030853 88.51495651 57.86467957 89.54944427 57.87948608 90.61528015 C57.84139542 96.62939718 57.37315165 100.09911816 53.375 104.6875 C49.73637019 107.57995918 44.94987875 107.09265032 40.5 107.125 C39.70980469 107.15787109 38.91960937 107.19074219 38.10546875 107.22460938 C34.104417 107.26122466 31.20437577 107.0243454 27.9296875 104.59765625 C23.09955415 99.09544013 23.0926803 92.803436 23.1015625 85.83203125 C23.08129232 84.1412692 23.06044193 82.45051402 23.0390625 80.75976562 C23.01639562 78.11981328 22.99995624 75.4801334 22.99414062 72.84008789 C22.98463197 70.2744151 22.95090374 67.70993663 22.9140625 65.14453125 C22.91910797 64.35593216 22.92415344 63.56733307 22.92935181 62.75483704 C22.86530264 59.19150007 22.6758822 57.09449868 20.52880859 54.19018555 C17.58109588 52.13360294 15.89500618 52.1008323 12.375 52.6875 C9.22304455 55.07276359 8.10636178 56.88050146 7.375 60.6875 C7.2703898 63.52475912 7.21414373 66.34206441 7.19921875 69.1796875 C7.17602242 70.87110622 7.15190516 72.56251252 7.12695312 74.25390625 C7.09185486 76.90910195 7.06249323 79.56383884 7.04907227 82.21923828 C7.03355155 84.78994627 6.99332438 87.35933139 6.94921875 89.9296875 C6.95112717 90.71737518 6.95303558 91.50506287 6.95500183 92.31661987 C6.83962648 97.54581809 5.7848039 100.50879116 2.375 104.6875 C-1.26362981 107.57995918 -6.05012125 107.09265032 -10.5 107.125 C-11.29019531 107.15787109 -12.08039063 107.19074219 -12.89453125 107.22460938 C-16.895583 107.26122466 -19.79562423 107.0243454 -23.0703125 104.59765625 C-27.73343074 99.28569434 -27.9225791 93.2333755 -27.8996582 86.41650391 C-27.90476913 85.620392 -27.90988007 84.82428009 -27.91514587 84.00404358 C-27.928966 81.39063857 -27.92809076 78.77749955 -27.92578125 76.1640625 C-27.92967252 74.33474633 -27.93400807 72.50543106 -27.93876648 70.67611694 C-27.94621253 66.84817573 -27.94594927 63.02032677 -27.94067383 59.19238281 C-27.93488325 54.30462977 -27.95180811 49.41725617 -27.9750185 44.52956581 C-27.989803 40.75299905 -27.9906211 36.97652267 -27.98750877 33.1999321 C-27.98801968 31.39873885 -27.99321374 29.59754024 -28.00332069 27.79637527 C-28.10922305 6.28411734 -28.10922305 6.28411734 -22.6875 0.6875 C-15.93281639 -2.58749811 -6.93252671 -2.51005277 0 0 Z " fill="#EE4C94" transform="translate(131.625,64.3125)"/>
<path d="M0 0 C7.79427129 6.52735794 10.57708871 13.79065382 11.5546875 23.68359375 C12.17867023 31.03807273 12.18605362 38.39527028 12.18530273 45.77124023 C12.18750534 48.19337134 12.2057731 50.6150574 12.22460938 53.03710938 C12.22754163 54.60156097 12.22952755 56.16601469 12.23046875 57.73046875 C12.23765427 58.44212692 12.24483978 59.1537851 12.25224304 59.88700867 C12.2238077 66.21468736 11.70413488 72.02268319 7.44140625 76.96875 C3.04002074 79.56661659 -0.05726852 79.68066463 -5.0625 79.5 C-6.24682617 79.50386719 -6.24682617 79.50386719 -7.45507812 79.5078125 C-12.06944712 79.4304551 -15.33404331 79.06729587 -19 76 C-22.3357033 71.69119328 -22.42649534 67.69513165 -22.40625 62.4453125 C-22.41708618 61.62553925 -22.42792236 60.80576599 -22.43908691 59.96115112 C-22.4732515 57.34902022 -22.48891653 54.73732457 -22.5 52.125 C-22.51463459 48.68968977 -22.54844978 45.25534036 -22.59375 41.8203125 C-22.59072876 41.04092316 -22.58770752 40.26153381 -22.58459473 39.45852661 C-22.65510684 34.26921454 -23.55387972 30.60476916 -26 26 C-28.84083641 24.57958179 -30.85477278 24.68547728 -34 25 C-36.329693 26.43227486 -36.329693 26.43227486 -38 29 C-38.39457974 31.94023736 -38.55786592 34.51808597 -38.5390625 37.45703125 C-38.55085541 38.27821945 -38.56264832 39.09940765 -38.57479858 39.94548035 C-38.61005299 42.56801263 -38.61922249 45.18975027 -38.625 47.8125 C-38.64140061 50.42429762 -38.66360067 53.03574293 -38.69662476 55.64738464 C-38.7160792 57.27010574 -38.7256089 58.89298697 -38.72354126 60.51582336 C-38.78162645 66.75384458 -39.28814784 72.05554502 -43.55859375 76.90625 C-47.47313176 79.80502777 -51.35088131 79.67006663 -56.0625 79.5 C-57.24682617 79.50386719 -57.24682617 79.50386719 -58.45507812 79.5078125 C-63.06944712 79.4304551 -66.33404331 79.06729587 -70 76 C-72.8366232 72.10291061 -73.38108949 69.34435811 -73.40405273 64.56079102 C-73.41673691 63.27918594 -73.42942108 61.99758087 -73.44248962 60.67713928 C-73.44043798 59.28605996 -73.43744978 57.89498174 -73.43359375 56.50390625 C-73.43815826 55.06810764 -73.44346464 53.63231122 -73.44947815 52.19651794 C-73.45839896 49.19138702 -73.45599825 46.18652198 -73.44604492 43.18139648 C-73.43455866 39.34010756 -73.4547654 35.49973841 -73.48396206 31.65857029 C-73.50235452 28.69445516 -73.5020256 25.73055919 -73.49632454 22.76640129 C-73.49617168 21.35068408 -73.50218661 19.93495167 -73.51461601 18.51928902 C-73.52957812 16.53577895 -73.51619207 14.55211714 -73.50170898 12.56860352 C-73.50154282 11.44229019 -73.50137665 10.31597687 -73.50120544 9.15553284 C-72.80227989 4.7551765 -70.80971106 1.4385952 -67.3046875 -1.34765625 C-63.59969157 -2.39635849 -59.95789498 -2.40963566 -56.125 -2.4375 C-55.33480469 -2.47037109 -54.54460937 -2.50324219 -53.73046875 -2.53710938 C-49.53229866 -2.57552857 -46.85510177 -2.32395474 -43.5546875 0.40234375 C-42.71164062 1.25957031 -41.86859375 2.11679688 -41 3 C-40.34 3.66 -39.68 4.32 -39 5 C-38.175 4.236875 -37.35 3.47375 -36.5 2.6875 C-27.46624174 -4.63941914 -10.17468941 -6.36424796 0 0 Z " fill="#23C0F1" transform="translate(478,92)"/>
<path d="M0 0 C5.15556536 3.95556308 9.03144996 9.29314495 10.265625 15.73828125 C10.13471042 19.53480393 9.83860121 21.89027646 7.703125 25.05078125 C2.56584157 28.60736209 -3.23105761 29.3139429 -9.3125 28.49609375 C-12.38224909 27.53555936 -14.64359154 25.98617079 -17.296875 24.17578125 C-21.85949051 21.06199835 -21.85949051 21.06199835 -27.171875 20.05078125 C-31.19516387 20.82720542 -32.43992035 21.38484753 -34.734375 24.73828125 C-37.74240248 31.50634307 -37.19185795 37.28400176 -34.68359375 44.0390625 C-33.71122505 46.08295823 -33.71122505 46.08295823 -30.734375 47.73828125 C-24.86057875 48.68228422 -22.19775179 47.65509804 -17.296875 44.30078125 C-11.56694802 40.39113494 -7.39264383 39.1746473 -0.5390625 40.00390625 C3.81326998 40.87116069 6.76251086 42.03367233 9.265625 45.73828125 C10.92580073 51.49355713 10.08427316 55.62765276 7.265625 60.73828125 C1.71022559 69.04829698 -5.88768804 73.06427828 -15.49243164 75.34130859 C-27.98295069 77.55295881 -42.35757848 77.00966099 -53.2421875 70.16015625 C-63.59694112 62.57350508 -69.50120283 53.50713803 -71.48046875 40.7578125 C-72.52624669 28.3210994 -70.39304688 16.31352807 -62.3515625 6.51171875 C-46.62796742 -10.73106426 -19.25782704 -12.20267971 0 0 Z " fill="#EE4C94" transform="translate(82.734375,96.26171875)"/>
<path d="M0 0 C0.83337891 -0.02384766 1.66675781 -0.04769531 2.52539062 -0.07226562 C6.78587194 -0.06216172 9.6982177 0.20866271 13.09765625 2.91015625 C16.72722166 6.81582172 16.69261779 9.64418431 16.72363281 14.79052734 C16.73324036 16.07551117 16.7428479 17.360495 16.75274658 18.68441772 C16.75759448 20.08908918 16.76187333 21.49376269 16.765625 22.8984375 C16.77137878 24.33948773 16.77713649 25.78053794 16.78289795 27.22158813 C16.79339928 30.24278113 16.79924767 33.26394758 16.80273438 36.28515625 C16.80821837 40.15107068 16.83224766 44.01663279 16.86070633 47.88243675 C16.87935566 50.85933448 16.88453951 53.8361477 16.88607025 56.81309891 C16.88909197 58.23802238 16.89710432 59.66294453 16.91025543 61.08781052 C16.9273625 63.083697 16.92358413 65.07972919 16.91894531 67.07568359 C16.92441376 68.77753311 16.92441376 68.77753311 16.92999268 70.51376343 C16.42591902 74.69558228 14.73685227 77.25639113 11.9609375 80.34375 C8.14854244 82.28099309 4.40260549 82.07535093 0.1875 82.0625 C-0.65039062 82.09085937 -1.48828125 82.11921875 -2.3515625 82.1484375 C-6.49843695 82.16147799 -9.5418548 81.96151121 -12.9140625 79.40625 C-16.91939803 74.89249726 -17.68524641 70.49739272 -17.7121582 64.57641602 C-17.72169022 63.41823868 -17.73122223 62.26006134 -17.74104309 61.06678772 C-17.74013168 59.82916183 -17.73922028 58.59153595 -17.73828125 57.31640625 C-17.74256638 56.031931 -17.7468515 54.74745575 -17.75126648 53.42405701 C-17.75870483 50.71161762 -17.75845475 47.99930846 -17.75317383 45.28686523 C-17.74738076 41.8258625 -17.76431714 38.36539521 -17.7875185 34.90448093 C-17.80586667 31.5834344 -17.80206921 28.26250309 -17.80078125 24.94140625 C-17.809991 23.7058046 -17.81920074 22.47020294 -17.82868958 21.19715881 C-17.78798174 13.60736822 -17.49714041 8.06655746 -12.33984375 2.16015625 C-8.20481617 -0.11605678 -4.64806445 -0.06082917 0 0 Z " fill="#EE4C94" transform="translate(221.4375,89.4375)"/>
<path d="M0 0 C0.79019531 -0.03287109 1.58039063 -0.06574219 2.39453125 -0.09960938 C6.47364577 -0.13693904 9.28449384 0.10568466 12.5703125 2.65234375 C16.59329707 7.03825812 17.37401653 10.64110986 17.3996582 16.50952148 C17.41395622 18.31180458 17.41395622 18.31180458 17.42854309 20.15049744 C17.42763168 21.44016922 17.42672028 22.729841 17.42578125 24.05859375 C17.42967207 25.4047102 17.43400754 26.75082543 17.43876648 28.09693909 C17.44621321 30.91370632 17.44594867 33.73034817 17.44067383 36.54711914 C17.43488046 40.14612455 17.45181386 43.7446151 17.4750185 47.34353542 C17.48979266 50.12232941 17.49062259 52.90100043 17.48750877 55.67982674 C17.48826769 57.64842624 17.50210976 59.61700674 17.51618958 61.58555603 C17.50996078 62.79023026 17.50373199 63.99490448 17.49731445 65.23608398 C17.49794388 66.29133774 17.4985733 67.34659149 17.4992218 68.43382263 C16.92229783 73.06448145 15.10725327 76.3523268 12 79.78515625 C7.98633043 82.09192558 4.67266959 81.98943 0.125 81.875 C-0.6690625 81.88208984 -1.463125 81.88917969 -2.28125 81.89648438 C-6.92260143 81.84620307 -10.18825466 81.53463717 -13.875 78.4375 C-16.71118278 74.53999319 -17.25608844 71.78207572 -17.27905273 66.99829102 C-17.29173691 65.71668594 -17.30442108 64.43508087 -17.31748962 63.11463928 C-17.31543798 61.72355996 -17.31244978 60.33248174 -17.30859375 58.94140625 C-17.31315826 57.50560764 -17.31846464 56.06981122 -17.32447815 54.63401794 C-17.33339896 51.62888702 -17.33099825 48.62402198 -17.32104492 45.61889648 C-17.30955866 41.77760756 -17.3297654 37.93723841 -17.35896206 34.09607029 C-17.37735452 31.13195516 -17.3770256 28.16805919 -17.37132454 25.20390129 C-17.37117168 23.78818408 -17.37718661 22.37245167 -17.38961601 20.95678902 C-17.40457812 18.97327895 -17.39119207 16.98961714 -17.37670898 15.00610352 C-17.37654282 13.87979019 -17.37637665 12.75347687 -17.37620544 11.59303284 C-16.67727989 7.1926765 -14.68471106 3.8760952 -11.1796875 1.08984375 C-7.47469157 0.04114151 -3.83289498 0.02786434 0 0 Z " fill="#23C0F1" transform="translate(371.875,89.5625)"/>
<path d="M0 0 C3.94025404 3.41488684 6.68768224 6.31487848 7.30078125 11.5859375 C7.32399788 17.11149597 7.30253962 21.33089226 4 26 C-1.60984624 31.31459118 -6.75803131 32.41799525 -14.28125 32.24609375 C-19.60849733 31.76388602 -23.30233813 30.08014224 -26.875 26 C-30.53390721 20.83448394 -30.51274329 16.13427423 -30 10 C-28.79056494 4.95275134 -26.40485469 1.76583899 -22 -1 C-14.54788538 -4.38732483 -7.11145075 -3.96600138 0 0 Z " fill="#23C0F1" transform="translate(261,14)"/>
<path d="M0 0 C3.88755002 2.54755282 5.52110185 5.99299306 6.94921875 10.27734375 C7.72417199 16.71834851 6.85418581 21.99907023 2.94921875 27.27734375 C-3.75887703 32.61644039 -9.74404321 32.87225602 -18.05078125 32.27734375 C-23.35570771 30.541186 -25.80787353 27.63210555 -29.05078125 23.27734375 C-31.13264635 19.11361354 -30.37803243 13.82316016 -30.05078125 9.27734375 C-28.43159591 4.505008 -26.26035505 2.01846158 -22.05078125 -0.72265625 C-14.55374918 -4.1303981 -7.29001583 -3.57503394 0 0 Z " fill="#F74B94" transform="translate(351.05078125,13.72265625)"/>
<path d="M0 0 C3.61400234 2.71050175 6.45740163 5.78980327 8.5 9.875 C9.18243922 17.24758109 9.26668165 23.00831489 4.5 28.875 C-1.19781356 33.18471513 -6.47267311 34.34348846 -13.5 33.875 C-19.04595305 32.5359581 -22.89741319 30.43121273 -26.5 25.875 C-29.27644225 19.92548089 -29.2512916 14.33756693 -27.375 8.1875 C-21.6386242 -1.94676391 -10.5882592 -3.40336903 0 0 Z " fill="#23C0F1" transform="translate(303.5,4.125)"/>
<path d="M0 0 C4.1937959 4.71802039 6.12477706 9.36601418 5.8515625 15.76171875 C4.97591871 20.86964084 2.65466695 24.71415827 -1.0625 28.25 C-6.92347142 32.00703296 -13.77762639 31.36575059 -20.5 30.8125 C-24.91490435 29.40874952 -28.15880318 26.84456118 -30.5 22.8125 C-32.47025457 16.9017363 -32.30462101 10.18401456 -30.3125 4.3125 C-26.68900186 -0.68542847 -23.03003202 -2.88519023 -17.03515625 -3.99609375 C-11.10065818 -4.44415293 -4.85954193 -3.64164185 0 0 Z " fill="#23C0F1" transform="translate(383.5,52.1875)"/>
<path d="M0 0 C4.99892921 5.38346222 4.92865839 9.99620835 4.81640625 17.1953125 C4.38504102 21.09983492 3.55168647 23.27769061 1.1171875 26.29296875 C-3.55359245 29.99700588 -7.66785555 31.03878056 -13.5625 31 C-14.738125 31.00773437 -15.91375 31.01546875 -17.125 31.0234375 C-22.02684479 30.45526913 -25.33257262 28.85492738 -28.8125 25.375 C-32.25768011 19.96114554 -33.0214142 15.00895459 -32.09765625 8.765625 C-30.92058204 4.05732817 -28.41991112 1.32998247 -24.75 -1.6875 C-17.30583311 -5.62852953 -6.80966867 -5.40767806 0 0 Z " fill="#F74B94" transform="translate(234.5625,52.375)"/>
</svg>
