<svg width="170" height="194" viewBox="0 0 170 194" fill="none" xmlns="http://www.w3.org/2000/svg">
<path d="M75.0073 191.222C75.0073 192.756 73.7635 194 72.2292 194C70.6949 194 69.4512 192.756 69.4512 191.222C69.4512 189.688 70.6949 188.444 72.2292 188.444C73.7635 188.444 75.0073 189.688 75.0073 191.222Z" fill="#D91950"/>
<path d="M27.7803 182.888C27.7803 183.655 27.1584 184.277 26.3913 184.277C25.6242 184.277 25.0023 183.655 25.0023 182.888C25.0023 182.121 25.6242 181.499 26.3913 181.499C27.1584 181.499 27.7803 182.121 27.7803 182.888Z" fill="#1EA555"/>
<path d="M109.733 178.258C109.733 180.815 107.66 182.888 105.103 182.888C102.546 182.888 100.473 180.815 100.473 178.258C100.473 175.701 102.546 173.628 105.103 173.628C107.66 173.628 109.733 175.701 109.733 178.258Z" fill="#FFD416"/>
<path d="M46.3007 163.441C46.3007 165.231 44.8496 166.683 43.0596 166.683C41.2696 166.683 39.8186 165.231 39.8186 163.441C39.8186 161.651 41.2696 160.2 43.0596 160.2C44.8496 160.2 46.3007 161.651 46.3007 163.441Z" fill="#34BCEE"/>
<path d="M153.718 163.442C153.718 168.556 149.572 172.702 144.458 172.702C139.344 172.702 135.198 168.556 135.198 163.442C135.198 158.327 139.344 154.181 144.458 154.181C149.572 154.181 153.718 158.327 153.718 163.442Z" fill="#34BCEE"/>
<path d="M9.26014 143.532C9.26014 146.089 7.18719 148.162 4.63007 148.162C2.07295 148.162 0 146.089 0 143.532C0 140.975 2.07295 138.902 4.63007 138.902C7.18719 138.902 9.26014 140.975 9.26014 143.532Z" fill="#F18728"/>
<path d="M169.924 131.957C169.924 133.491 168.68 134.735 167.146 134.735C165.611 134.735 164.368 133.491 164.368 131.957C164.368 130.423 165.611 129.179 167.146 129.179C168.68 129.179 169.924 130.423 169.924 131.957Z" fill="#1EA555"/>
<path d="M10.1862 94.9165C10.1862 96.4507 8.94241 97.6945 7.40814 97.6945C5.87387 97.6945 4.63009 96.4507 4.63009 94.9165C4.63009 93.3822 5.87387 92.1384 7.40814 92.1384C8.94241 92.1384 10.1862 93.3822 10.1862 94.9165Z" fill="#83358B"/>
<path d="M166.22 92.6014C166.22 93.3685 165.598 93.9904 164.831 93.9904C164.063 93.9904 163.442 93.3685 163.442 92.6014C163.442 91.8343 164.063 91.2124 164.831 91.2124C165.598 91.2124 166.22 91.8343 166.22 92.6014Z" fill="#34BCEE"/>
<path d="M26.3915 62.043C26.3915 62.8101 25.7696 63.432 25.0025 63.432C24.2354 63.432 23.6135 62.8101 23.6135 62.043C23.6135 61.2759 24.2354 60.654 25.0025 60.654C25.7696 60.654 26.3915 61.2759 26.3915 62.043Z" fill="#34BCEE"/>
<path d="M166.683 47.6897C166.683 51.2697 163.78 54.1718 160.201 54.1718C156.621 54.1718 153.718 51.2697 153.718 47.6897C153.718 44.1097 156.621 41.2076 160.201 41.2076C163.78 41.2076 166.683 44.1097 166.683 47.6897Z" fill="#F18728"/>
<path d="M23.1504 31.4845C23.1504 36.5987 19.0045 40.7446 13.8902 40.7446C8.776 40.7446 4.63009 36.5987 4.63009 31.4845C4.63009 26.3702 8.776 22.2243 13.8902 22.2243C19.0045 22.2243 23.1504 26.3702 23.1504 31.4845Z" fill="#D91950"/>
<path d="M131.031 15.2793C131.031 17.0693 129.58 18.5203 127.79 18.5203C126 18.5203 124.549 17.0693 124.549 15.2793C124.549 13.4893 126 12.0382 127.79 12.0382C129.58 12.0382 131.031 13.4893 131.031 15.2793Z" fill="#83358B"/>
<path d="M65.2841 2.77804C65.2841 4.31231 64.0403 5.55609 62.506 5.55609C60.9717 5.55609 59.728 4.31231 59.728 2.77804C59.728 1.24377 60.9717 0 62.506 0C64.0403 0 65.2841 1.24377 65.2841 2.77804Z" fill="#FFD416"/>
<path d="M28.7389 121.998C21.9096 121.998 16.6683 117.409 16.6683 110.135C16.6683 102.862 21.9096 98.2825 28.7389 98.2825C34.1422 98.2825 37.9204 100.403 39.3048 103.714C40.2817 106.047 39.5085 107.816 36.786 108.182L36.1748 108.265C34.0218 108.547 33.4523 107.899 32.0309 106.76C31.2577 106.149 30.3641 105.705 29.2668 105.705C27.3175 105.705 26.0952 107.413 26.0952 110.135C26.0952 112.858 27.3129 114.566 29.2668 114.566C30.3641 114.566 31.2577 114.117 32.0309 113.511C33.4523 112.372 34.0218 111.724 36.1748 112.006L36.786 112.085C39.5085 112.451 40.2493 114.21 39.3048 116.553C37.962 119.886 34.1422 121.993 28.7389 121.993V121.998Z" fill="#DB2559"/>
<path d="M43.3653 117.696V95.0183C43.3653 92.3745 44.7868 90.9531 47.4305 90.9531H48.7316C51.3753 90.9531 52.7968 92.3745 52.7968 95.0183V101.236C53.6117 99.8567 55.723 98.0279 59.1353 98.0279C64.2145 98.0279 67.4278 100.264 67.4278 108.594V117.696C67.4278 120.34 66.0064 121.762 63.3626 121.762H62.0616C59.4178 121.762 57.9964 120.34 57.9964 117.696V109.571C57.9964 106.603 57.1444 105.834 55.3943 105.834C53.6441 105.834 52.7922 106.607 52.7922 109.571V117.696C52.7922 120.34 51.3707 121.762 48.7269 121.762H47.4259C44.7821 121.762 43.3607 120.34 43.3607 117.696H43.3653Z" fill="#DB2559"/>
<path d="M76.1231 98.514H77.4658C79.7068 98.514 81.531 100.334 81.531 102.579V117.696C81.531 119.937 79.7114 121.762 77.4658 121.762H76.1231C73.8821 121.762 72.0579 119.942 72.0579 117.696V102.575C72.0579 100.334 73.8775 98.5094 76.1231 98.5094V98.514Z" fill="#DB2559"/>
<path d="M90.467 129.276C87.8233 129.276 86.4018 127.855 86.4018 125.211V102.575C86.4018 99.9308 87.8233 98.5094 90.467 98.5094H91.7681C94.2869 98.5094 95.8333 99.6067 95.8333 101.394V101.436C96.8797 99.7965 99.5698 98.2779 102.01 98.2779C107.821 98.2779 111.196 102.737 111.196 110.094C111.196 117.451 107.862 121.998 102.01 121.998C99.5698 121.998 96.7686 120.701 95.8333 118.59V125.216C95.8333 127.859 94.4119 129.281 91.7681 129.281H90.467V129.276ZM101.806 110.135C101.806 107.455 100.547 105.663 98.6345 105.663C96.7223 105.663 95.5046 107.408 95.5046 110.135C95.5046 112.863 96.7223 114.566 98.6345 114.566C100.547 114.566 101.806 112.779 101.806 110.135Z" fill="#DB2559"/>
<path d="M119.28 98.514H120.623C122.864 98.514 124.688 100.334 124.688 102.579V117.696C124.688 119.937 122.868 121.762 120.623 121.762H119.28C117.039 121.762 115.215 119.942 115.215 117.696V102.575C115.215 100.334 117.034 98.5094 119.28 98.5094V98.514Z" fill="#11BFF1"/>
<path d="M145.329 98.2825C151.223 98.2825 153.621 101.278 153.621 108.594V117.696C153.621 120.336 152.2 121.762 149.556 121.762H148.255C145.611 121.762 144.19 120.34 144.19 117.696V109.566C144.19 106.922 143.375 105.83 141.588 105.83C139.638 105.83 138.986 106.927 138.986 109.566V117.696C138.986 120.336 137.564 121.762 134.92 121.762H133.619C130.976 121.762 129.554 120.34 129.554 117.696V102.575C129.554 99.9308 130.976 98.5094 133.619 98.5094H134.92C137.208 98.5094 138.578 99.5743 138.907 101.412C139.958 99.5465 142.537 98.2779 145.324 98.2779L145.329 98.2825Z" fill="#11BFF1"/>
<path d="M71.5023 91.5967C71.5023 88.3696 73.6414 86.7351 76.6694 86.7351C79.4151 86.7351 81.8366 88.3696 81.8366 91.5967C81.8366 94.8239 79.4151 96.4583 76.6694 96.4583C73.6414 96.4583 71.5023 94.8655 71.5023 91.5967Z" fill="#DB2559"/>
<path d="M114.354 91.5967C114.354 88.3696 116.493 86.7351 119.521 86.7351C122.266 86.7351 124.688 88.3696 124.688 91.5967C124.688 94.8239 122.266 96.4583 119.521 96.4583C116.493 96.4583 114.354 94.8655 114.354 91.5967Z" fill="#11BFF1"/>
<path d="M79.7114 80.8827C79.7114 77.6556 81.8505 76.0211 84.8786 76.0211C87.6242 76.0211 90.0457 77.6556 90.0457 80.8827C90.0457 84.1099 87.6242 85.7443 84.8786 85.7443C81.8505 85.7443 79.7114 84.1516 79.7114 80.8827Z" fill="#F68A35"/>
<path d="M92.4024 78.4797C92.4024 75.2526 94.5415 73.6181 97.5696 73.6181C100.315 73.6181 102.737 75.2526 102.737 78.4797C102.737 81.7069 100.315 83.3413 97.5696 83.3413C94.5415 83.3413 92.4024 81.7485 92.4024 78.4797Z" fill="#FFC944"/>
<path d="M105.482 80.8827C105.482 77.6556 107.621 76.0211 110.65 76.0211C113.395 76.0211 115.817 77.6556 115.817 80.8827C115.817 84.1099 113.395 85.7443 110.65 85.7443C107.621 85.7443 105.482 84.1516 105.482 80.8827Z" fill="#1FAE62"/>
</svg>