<svg width="46" height="46" viewBox="0 0 46 46" fill="none" xmlns="http://www.w3.org/2000/svg">
	<path d="M23 46.0001C35.7025 46.0001 46 35.7026 46 23.0001C46 10.2975 35.7025 6.10352e-05 23 6.10352e-05C10.2975 6.10352e-05 0 10.2975 0 23.0001C0 35.7026 10.2975 46.0001 23 46.0001Z" fill="#1877F2"/>
	<path d="M24.7882 34.5002V24.0245H28.319L28.8491 19.9231H24.7882V17.3131C24.7882 16.1272 25.1161 15.3231 26.8141 15.3231H28.9659V11.6665C28.593 11.617 27.3083 11.5047 25.8124 11.5047C22.6903 11.5047 20.552 13.4094 20.552 16.9088V19.9276H17.0346V24.029H20.552V34.5002H24.7882Z" fill="white"/>
</svg>
