<svg width="28" height="28" viewBox="0 0 28 28" fill="none" xmlns="http://www.w3.org/2000/svg">
	<path d="M28 14.3109C28 13.1598 27.9047 12.3198 27.6984 11.4487H14.2857V16.6442H22.1587C22 17.9354 21.1429 19.8798 19.2381 21.1864L19.2114 21.3604L23.4522 24.58L23.746 24.6087C26.4444 22.1665 28 18.5731 28 14.3109Z" fill="#4285F4"/>
	<path d="M14.2848 28C18.1419 28 21.3809 26.7553 23.746 24.6087L19.2381 21.1864C18.0317 22.0109 16.4118 22.5865 14.2848 22.5865C10.5071 22.5865 7.30079 20.1444 6.15783 16.7688L5.99029 16.7827L1.58062 20.1272L1.52295 20.2843C3.87212 24.8577 8.69751 28 14.2848 28Z" fill="#34A853"/>
	<path d="M6.15783 16.7688C5.85625 15.8977 5.68255 14.9644 5.68255 14C5.68255 13.0355 5.85708 12.1022 6.1428 11.2311L6.13481 11.0455L1.66986 7.64736L1.52377 7.71546C0.555561 9.61326 0 11.7444 0 14C0 16.2555 0.554739 18.3865 1.52295 20.2843L6.15783 16.7688Z" fill="#FBBC05"/>
	<path d="M14.2849 5.4133C16.9674 5.4133 18.7769 6.54885 19.8087 7.4978L23.8404 3.64C21.3643 1.38445 18.142 0 14.2849 0C8.69755 0 3.87296 3.14216 1.52377 7.71546L6.1428 11.2311C7.30163 7.85551 10.5072 5.4133 14.2849 5.4133Z" fill="#EB4335"/>
</svg>
