<svg width="47" height="47" viewBox="0 0 47 47" fill="none" xmlns="http://www.w3.org/2000/svg">
	<path d="M32.4456 16C32.2444 15.4824 31.9371 15.0127 31.5433 14.6211C31.1496 14.2295 30.6782 13.9247 30.1595 13.7264C29.4453 13.4637 28.6913 13.3257 27.9303 13.3183C26.6648 13.2635 26.2854 13.2499 23.0799 13.257C19.8744 13.2641 19.4951 13.2794 18.2298 13.3398C17.4681 13.3502 16.7139 13.4915 16.0001 13.7577C15.4825 13.9589 15.0128 14.2662 14.6212 14.66C14.2296 15.0537 13.9248 15.5251 13.7265 16.0438C13.4638 16.758 13.3257 17.512 13.3184 18.2729C13.2636 19.5384 13.25 19.9179 13.2571 23.1233C13.2642 26.3288 13.2794 26.7082 13.3398 27.9734C13.3502 28.7351 13.4916 29.4894 13.7578 30.2032C13.9589 30.7208 14.2663 31.1905 14.66 31.5821C15.0538 31.9737 15.5252 32.2784 16.0439 32.4768C16.758 32.7395 17.5121 32.8775 18.273 32.8848C19.5385 32.9397 19.9179 32.9508 23.1234 32.9438C26.3289 32.9367 26.7082 32.9238 27.9735 32.861C28.7351 32.8514 29.4893 32.7108 30.2032 32.4455C30.7208 32.2443 31.1906 31.937 31.5821 31.5432C31.9737 31.1495 32.2785 30.6781 32.4768 30.1594C32.7396 29.4452 32.8776 28.6912 32.8849 27.9303C32.9397 26.6647 32.9509 26.2853 32.9438 23.0799C32.9368 19.8744 32.9239 19.495 32.8611 18.2298C32.8515 17.4682 32.7109 16.714 32.4456 16ZM23.1153 29.2677C21.8958 29.2703 20.7028 28.9113 19.6873 28.2361C18.6718 27.5608 17.8794 26.5995 17.4102 25.4738C16.941 24.3482 16.8161 23.1086 17.0514 21.912C17.2867 20.7154 17.8715 19.6154 18.732 18.7512C19.5924 17.8869 20.6898 17.2972 21.8854 17.0567C23.0809 16.8161 24.321 16.9355 25.4487 17.3997C26.5765 17.8639 27.5412 18.6521 28.221 19.6646C28.9008 20.6771 29.265 21.8684 29.2677 23.088C29.2713 24.7233 28.6252 26.2931 27.4714 27.452C26.3176 28.6109 24.7506 29.264 23.1153 29.2677ZM29.4993 18.1195C29.2143 18.1202 28.9356 18.0363 28.6983 17.8785C28.4611 17.7207 28.2759 17.4961 28.1663 17.2331C28.0567 16.9701 28.0275 16.6805 28.0825 16.4009C28.1374 16.1213 28.2741 15.8643 28.4751 15.6624C28.6762 15.4605 28.9326 15.3227 29.2119 15.2665C29.4912 15.2103 29.781 15.2382 30.0445 15.3466C30.3079 15.4551 30.5334 15.6393 30.6922 15.8758C30.851 16.1124 30.9361 16.3907 30.9368 16.6757C30.9376 17.0578 30.7866 17.4245 30.517 17.6953C30.2475 17.9661 29.8814 18.1187 29.4993 18.1195ZM27.1043 23.0928C27.1061 23.8844 26.873 24.6588 26.4347 25.318C25.9963 25.9772 25.3723 26.4916 24.6416 26.7962C23.9109 27.1007 23.1062 27.1818 22.3295 27.0291C21.5527 26.8763 20.8386 26.4967 20.2776 25.9382C19.7166 25.3796 19.3338 24.6672 19.1776 23.8911C19.0215 23.115 19.099 22.3101 19.4003 21.578C19.7016 20.846 20.2133 20.2197 20.8706 19.7784C21.5278 19.3371 22.3012 19.1007 23.0928 19.0989C24.1544 19.0966 25.1734 19.516 25.9257 20.265C26.678 21.014 27.102 22.0312 27.1043 23.0928ZM23.0507 0.0508986C18.4917 0.0609706 14.0381 1.42272 10.253 3.96393C6.46797 6.50515 3.52146 10.1117 1.78611 14.3275C0.0507638 18.5433 -0.395477 23.1791 0.503817 27.6485C1.40311 32.1179 3.60755 36.2203 6.83837 39.4369C10.0692 42.6535 14.1813 44.8398 18.6546 45.7193C23.128 46.5988 27.7617 46.1321 31.9698 44.3782C36.1779 42.6242 39.7714 39.6618 42.2959 35.8655C44.8204 32.0693 46.1624 27.6097 46.1524 23.0507C46.1389 16.9372 43.6974 11.0796 39.365 6.76628C35.0326 2.45299 29.1642 0.0373925 23.0507 0.0508986ZM35.0461 28.0239C35.028 29.0203 34.841 30.0063 34.4931 30.9401C34.1865 31.7382 33.7166 32.4633 33.1134 33.0692C32.5102 33.675 31.7871 34.1482 30.9904 34.4583C30.0589 34.8101 29.0746 35.0014 28.0791 35.0242C26.7971 35.0847 26.3889 35.1 23.1282 35.1072C19.8675 35.1144 19.4593 35.1009 18.1769 35.0461C17.1814 35.0277 16.1962 34.8407 15.2631 34.493C14.4651 34.1864 13.7399 33.7165 13.1341 33.1133C12.5282 32.5101 12.0551 31.787 11.745 30.9904C11.3932 30.0589 11.2019 29.0745 11.1791 28.0791C11.1186 26.797 11.1033 26.3888 11.0961 23.1281C11.0889 19.8674 11.1024 19.4592 11.1572 18.1769C11.1748 17.1815 11.361 16.1963 11.7078 15.2631C12.0144 14.4644 12.4846 13.7386 13.0882 13.1323C13.6918 12.526 14.4155 12.0526 15.2129 11.7425C16.1445 11.3916 17.1289 11.201 18.1242 11.179C19.4063 11.1185 19.8144 11.1032 23.0751 11.096C26.3359 11.0888 26.7441 11.1023 28.0264 11.1571C29.0218 11.1748 30.007 11.3609 30.9402 11.7077C31.7385 12.0146 32.4638 12.4849 33.0696 13.0885C33.6755 13.6921 34.1485 14.4157 34.4584 15.2128C34.8101 16.1443 35.0015 17.1287 35.0243 18.1241C35.0847 19.4062 35.1 19.8144 35.1072 23.0751C35.1144 26.3358 35.1009 26.744 35.0461 28.0263L35.0461 28.0239Z" fill="url(#paint0_radial_4060_9257)"/>
	<defs>
		<radialGradient id="paint0_radial_4060_9257" cx="0" cy="0" r="1" gradientUnits="userSpaceOnUse" gradientTransform="translate(6.17601 46.3701) scale(60.1841)">
			<stop offset="0.09" stop-color="#FA8F21"/>
			<stop offset="0.78" stop-color="#D82D7E"/>
		</radialGradient>
	</defs>
</svg>
