<svg width="46" height="46" viewBox="0 0 46 46" fill="none" xmlns="http://www.w3.org/2000/svg">
	<path d="M46 23.0001C46 35.7026 35.7025 46.0001 23 46.0001C10.2975 46.0001 0 35.7026 0 23.0001C0 10.2975 10.2975 6.10352e-05 23 6.10352e-05C35.7025 6.10352e-05 46 10.2975 46 23.0001Z" fill="#1DA1F2"/>
	<path d="M18.5817 34.1724C28.8796 34.1724 34.5107 25.6405 34.5107 18.2434C34.5107 18.0013 34.5107 17.7592 34.4955 17.5192C35.5912 16.7264 36.5369 15.7449 37.2884 14.6205C36.267 15.0735 35.1835 15.3708 34.074 15.5024C35.2423 14.8021 36.1164 13.7013 36.5339 12.4048C35.4348 13.0573 34.2322 13.5172 32.9781 13.7645C32.1341 12.8671 31.0178 12.2728 29.802 12.0737C28.5862 11.8746 27.3387 12.0818 26.2526 12.6631C25.1664 13.2445 24.3021 14.1676 23.7935 15.2897C23.2848 16.4118 23.1602 17.6702 23.4388 18.8703C21.2129 18.7587 19.0353 18.1803 17.0474 17.1726C15.0595 16.1649 13.3058 14.7504 11.9001 13.0209C11.1834 14.2531 10.9633 15.712 11.2846 17.1008C11.6059 18.4895 12.4444 19.7036 13.6294 20.4958C12.7445 20.4659 11.8797 20.225 11.1068 19.7933V19.8646C11.1066 21.1557 11.5525 22.4073 12.3691 23.4074C13.1857 24.4076 14.3227 25.0948 15.5878 25.353C14.7631 25.5776 13.8979 25.6101 13.0587 25.4481C13.416 26.5611 14.1124 27.5346 15.0504 28.2323C15.9884 28.93 17.121 29.317 18.2898 29.339C16.3055 30.893 13.8564 31.735 11.3359 31.7298C10.8894 31.73 10.4434 31.704 10 31.6519C12.5599 33.2963 15.5391 34.169 18.5817 34.1659" fill="white"/>
</svg>
