<svg width="335" height="161" viewBox="0 0 335 161" fill="none" xmlns="http://www.w3.org/2000/svg">
<path d="M320.232 61.5297C320.232 60.1124 321.458 58.9635 322.97 58.9635C324.483 58.9635 325.709 60.1124 325.709 61.5297C325.709 62.947 324.483 64.0959 322.97 64.0959C321.458 64.0959 320.232 62.947 320.232 61.5297Z" fill="#1EA555"/>
<path d="M118.665 80.0838C118.665 75.3595 122.752 71.5297 127.793 71.5297C132.834 71.5297 136.921 75.3595 136.921 80.0838C136.921 84.8081 132.834 88.6379 127.793 88.6379C122.752 88.6379 118.665 84.8081 118.665 80.0838Z" fill="#FFD416"/>
<path d="M243.719 97.457C243.719 94.15 246.58 91.4692 250.109 91.4692C253.638 91.4692 256.499 94.15 256.499 97.457C256.499 100.764 253.638 103.445 250.109 103.445C246.58 103.445 243.719 100.764 243.719 97.457Z" fill="#83358B"/>
<path d="M31.9483 97.4571C31.9483 88.0085 40.1218 80.3489 50.2044 80.3489C60.287 80.3489 68.4605 88.0085 68.4605 97.4571C68.4605 106.906 60.287 114.565 50.2044 114.565C40.1218 114.565 31.9483 106.906 31.9483 97.4571Z" fill="#34BCEE"/>
<path d="M316.744 134.24C316.744 129.515 320.831 125.686 325.872 125.686C330.913 125.686 335 129.515 335 134.24C335 138.964 330.913 142.794 325.872 142.794C320.831 142.794 316.744 138.964 316.744 134.24Z" fill="#F18728"/>
<path d="M0 155.625C2.47807e-07 152.79 2.45206 150.492 5.47684 150.492C8.50161 150.492 10.9537 152.79 10.9537 155.625C10.9537 158.459 8.50161 160.757 5.47684 160.757C2.45206 160.757 -2.47807e-07 158.459 0 155.625Z" fill="#1EA555"/>
<path d="M195 5.13246C195 2.29788 197.452 -2.64434e-07 200.477 0C203.502 2.64434e-07 205.954 2.29788 205.954 5.13246C205.954 7.96704 203.502 10.2649 200.477 10.2649C197.452 10.2649 195 7.96704 195 5.13246Z" fill="#34BCEE"/>
</svg>