<svg width="46" height="46" viewBox="0 0 46 46" fill="none" xmlns="http://www.w3.org/2000/svg">
	<path d="M46 23.0001C46 35.7026 35.7025 46.0001 23 46.0001C10.2975 46.0001 0 35.7026 0 23.0001C0 10.2975 10.2975 6.10352e-05 23 6.10352e-05C35.7025 6.10352e-05 46 10.2975 46 23.0001Z" fill="#25D366"/>
	<path d="M32.4715 13.8417C29.998 11.3632 26.7082 10.0001 23.2037 10.0001C15.9847 10.0001 10.1091 15.8757 10.1091 23.0996C10.1091 25.4079 10.7138 27.665 11.8589 29.6478L10 36.4371L16.9447 34.6146C18.8597 35.6573 21.0144 36.2108 23.202 36.2108H23.207C30.426 36.2108 36.3066 30.3351 36.3066 23.1112C36.3066 19.6099 34.9434 16.3218 32.4699 13.8434L32.4715 13.8417ZM23.207 34C21.2506 34 19.3339 33.4729 17.6618 32.4815L17.2636 32.2436L13.1427 33.3225L14.2432 29.3057L13.9854 28.8927C12.8899 27.1627 12.3182 25.1601 12.3182 23.0996C12.3182 17.0951 17.2025 12.2092 23.2136 12.2092C26.12 12.2092 28.8579 13.346 30.9117 15.3998C32.9672 17.4603 34.0974 20.1916 34.0974 23.1029C34.0924 29.1124 29.2082 33.9983 23.207 33.9983V34ZM29.1768 25.8425C28.8513 25.6773 27.2403 24.8874 26.9412 24.7784C26.6421 24.6693 26.424 24.6132 26.2026 24.9436C25.9862 25.2691 25.3566 26.0077 25.165 26.2291C24.9733 26.4456 24.7833 26.477 24.4578 26.3117C24.1323 26.1465 23.0731 25.8012 21.824 24.6859C20.8524 23.8184 20.1931 22.7444 20.0015 22.4189C19.8098 22.0934 19.98 21.9133 20.1469 21.753C20.2972 21.6076 20.4724 21.3713 20.6376 21.1796C20.8029 20.988 20.8541 20.8541 20.9631 20.6327C21.0722 20.4163 21.0193 20.2246 20.9367 20.0594C20.8541 19.8941 20.1981 18.2831 19.9304 17.6272C19.6677 16.9861 19.3934 17.0753 19.1918 17.0637C19.0002 17.0538 18.7837 17.0538 18.5673 17.0538C18.3508 17.0538 17.9939 17.1364 17.6948 17.4619C17.3958 17.7874 16.5481 18.5822 16.5481 20.1932C16.5481 21.8042 17.7196 23.3591 17.8849 23.5805C18.0501 23.7969 20.1931 27.1065 23.4763 28.5225C24.2562 28.858 24.8659 29.0595 25.3401 29.2149C26.125 29.4627 26.8371 29.4264 27.4006 29.3437C28.0301 29.2512 29.3371 28.5539 29.6114 27.7889C29.8856 27.0239 29.8856 26.3696 29.803 26.2341C29.7254 26.0887 29.5089 26.0077 29.1785 25.8408L29.1768 25.8425Z" fill="white"/>
</svg>
